<svg xmlns="http://www.w3.org/2000/svg" xmlns:xlink="http://www.w3.org/1999/xlink" viewBox="0 0 223.4 54.32">
  <defs>
    <style>
      .cls-1 {
        fill: #939599;
      }

      .cls-2 {
        fill: url(#linear-gradient);
      }

      .cls-3 {
        fill: url(#linear-gradient-2);
      }
    </style>
    <linearGradient id="linear-gradient" x1="11.76" y1="2.71" x2="60.79" y2="51.74" gradientUnits="userSpaceOnUse">
      <stop offset="0" stop-color="#2075bb"/>
      <stop offset="0.35" stop-color="#055f9f"/>
      <stop offset="0.6" stop-color="#055f9f"/>
      <stop offset="1" stop-color="#2caae1"/>
    </linearGradient>
    <linearGradient id="linear-gradient-2" x1="12.95" y1="3.89" x2="59.6" y2="50.55" gradientUnits="userSpaceOnUse">
      <stop offset="0" stop-color="#2caae1"/>
      <stop offset="0.4" stop-color="#055f9f"/>
      <stop offset="0.65" stop-color="#055f9f"/>
      <stop offset="1" stop-color="#2075bb"/>
    </linearGradient>
  </defs>
  <title>logo_ramo</title>
  <g id="Livello_2" data-name="Livello 2">
    <g id="Livello_1-2" data-name="Livello 1">
      <g>
        <path class="cls-1" d="M202.69,0a15.45,15.45,0,0,0-5.29.84,10.84,10.84,0,0,0-3.92,2.41A10.28,10.28,0,0,0,191,7a14,14,0,0,0-.84,5v3.47h6.09V12.16A12.56,12.56,0,0,1,196.6,9a4.31,4.31,0,0,1,1.07-2,4.18,4.18,0,0,1,2-1.06,13.23,13.23,0,0,1,3.14-.31h14.5V12a12.09,12.09,0,0,1-.34,3.11,3.91,3.91,0,0,1-3.11,3,13.49,13.49,0,0,1-3.09.3h-14.5v0h-8.9V11.05a10.84,10.84,0,0,0-.91-4.47,10.17,10.17,0,0,0-2.56-3.5,11.73,11.73,0,0,0-4-2.28,15.3,15.3,0,0,0-5.1-.81H149.77V18.27h-2.91V12A14.28,14.28,0,0,0,146,7a10.14,10.14,0,0,0-2.44-3.78A10.77,10.77,0,0,0,139.65.83,15.7,15.7,0,0,0,134.38,0h-20V18.27h-8.19l-3.59-3.56q9.22-.94,9.22-10.09V0H78.54V24.14h6.09V5.68h21.26a4.54,4.54,0,0,1-1.34,2.73,4.16,4.16,0,0,1-2.9,1H94.92V14.8l9.77,9.34h15.73V5.68h11q5.73,0,7.22,1.16a4.22,4.22,0,0,1,1.75,2.66H123.51v5.43h17.26v9.21h15.08V5.68h9.26V24.14h6.08V5.68h3.67q6.43,0,6.43,6.37V24.14h29.61a16,16,0,0,0,5.31-.81A10.6,10.6,0,0,0,220.15,21a10,10,0,0,0,2.43-3.78,14.53,14.53,0,0,0,.82-5V0Z"/>
        <path class="cls-2" d="M27.25,0A32.65,32.65,0,0,0,15.71,1.9,23.43,23.43,0,0,0,7.16,7.31a23.21,23.21,0,0,0-5.33,8.54A32.4,32.4,0,0,0,0,27.05V54.32H45.18A35.61,35.61,0,0,0,55,53L35.16,33.48V26.57h8.29A5,5,0,0,0,47,25.36a5.81,5.81,0,0,0,1.66-3.47H22.46V45.36H15V14.66h41v5.88q0,11.64-11.37,12.83L61.42,50.27a21.56,21.56,0,0,0,3.92-3.08,22.6,22.6,0,0,0,5.3-8.5,33.64,33.64,0,0,0,1.79-11.35V0Z"/>
        <path class="cls-3" d="M1.68,52.64V27.05A30.87,30.87,0,0,1,3.41,16.42,21.67,21.67,0,0,1,8.35,8.49a21.91,21.91,0,0,1,7.94-5,31.14,31.14,0,0,1,11-1.79h43.5V27.33a32.14,32.14,0,0,1-1.69,10.79A21.06,21.06,0,0,1,64.16,46a19.66,19.66,0,0,1-2.52,2.12L48,34.43c6.31-1.73,9.62-6.48,9.62-13.9V14.66A1.68,1.68,0,0,0,55.94,13H15a1.68,1.68,0,0,0-1.68,1.68v30.7A1.68,1.68,0,0,0,15,47h7.5a1.68,1.68,0,0,0,1.68-1.68V23.56H46.35a2.89,2.89,0,0,1-.47.57,3.41,3.41,0,0,1-2.43.77H35.16a1.68,1.68,0,0,0-1.68,1.68v6.91a1.67,1.67,0,0,0,.5,1.19L51.68,52.1a37,37,0,0,1-6.5.54Z"/>
      </g>
    </g>
  </g>
</svg>
